ffmpeg version 4.4.2-0ubuntu0.22.04.1 Copyright (c) 2000-2021 the FFmpeg developers
  built with gcc 11 (Ubuntu 11.2.0-19ubuntu1)
  configuration: --prefix=/usr --extra-version=0ubuntu0.22.04.1 --toolchain=hardened --libdir=/usr/lib/x86_64-linux-gnu --incdir=/usr/include/x86_64-linux-gnu --arch=amd64 --enable-gpl --disable-stripping --enable-gnutls --enable-ladspa --enable-libaom --enable-libass --enable-libbluray --enable-libbs2b --enable-libcaca --enable-libcdio --enable-libcodec2 --enable-libdav1d --enable-libflite --enable-libfontconfig --enable-libfreetype --enable-libfribidi --enable-libgme --enable-libgsm --enable-libjack --enable-libmp3lame --enable-libmysofa --enable-libopenjpeg --enable-libopenmpt --enable-libopus --enable-libpulse --enable-librabbitmq --enable-librubberband --enable-libshine --enable-libsnappy --enable-libsoxr --enable-libspeex --enable-libsrt --enable-libssh --enable-libtheora --enable-libtwolame --enable-libvidstab --enable-libvorbis --enable-libvpx --enable-libwebp --enable-libx265 --enable-libxml2 --enable-libxvid --enable-libzimg --enable-libzmq --enable-libzvbi --enable-lv2 --enable-omx --enable-openal --enable-opencl --enable-opengl --enable-sdl2 --enable-pocketsphinx --enable-librsvg --enable-libmfx --enable-libdc1394 --enable-libdrm --enable-libiec61883 --enable-chromaprint --enable-frei0r --enable-libx264 --enable-shared
  libavutil      56. 70.100 / 56. 70.100
  libavcodec     58.134.100 / 58.134.100
  libavformat    58. 76.100 / 58. 76.100
  libavdevice    58. 13.100 / 58. 13.100
  libavfilter     7.110.100 /  7.110.100
  libswscale      5.  9.100 /  5.  9.100
  libswresample   3.  9.100 /  3.  9.100
  libpostproc    55.  9.100 / 55.  9.100
Input #0, flv, from '/storage/32426326/20250702/32426326-20250702-125955-305.flv':
  Metadata:
    5.1             : false
    encoder         : obs-output module (libobs version 31.0.2)
    fileSize        : 0
    fps             : 60
    4.1             : false
    displayHeight   : 1440
    4.0             : false
    cdn_ip          : 192.168.252.5
    7.1             : false
    2.1             : false
    audiochannels   : 2
    displayWidth    : 2560
    3.1             : false
    Title           : 技术主播没有GG
    Artist          : 蓝音BuBuLine (32426326)
    Comment         : mikufans直播间 32426326 的直播录像
                    : 主播名: 蓝音BuBuLine
                    : 直播标题: 技术主播没有GG
                    : 直播分区: 单机游戏·主机游戏
                    : 录制时间: 2025-07-02T12:59:55.3160027+00:00
                    : 直播服务器:
                    : d1--ov-gotcha07b.bilivideo.com [156.59.188.245]
                    : 
                    : 使用 mikufans录播姬 录制 https://rec.danmuji.org
                    : 录播姬版本: 2.17.0
    RecordedBy      : BililiveRecorder mikufans录播姬
    RecordedFrom    : d1--ov-gotcha07b.bilivideo.com
    StreamServers   : d1--ov-gotcha07b.bilivideo.com [156.59.188.245]
    RecorderVersion : 2.17.0+Branch.tags-v2.17.0.Sha.79d60d3b69038634787f3d53faa1124d513cf64a
    StartTime       : Wed, 02 Jul 2025 12:59:55 +0000
    RoomId          : 32426326
    ShortId         : 0
    Name            : 蓝音BuBuLine
    StreamTitle     : 技术主播没有GG
    AreaNameParent  : 单机游戏
    AreaNameChild   : 主机游戏
  Duration: 05:30:34.19, start: 0.035000, bitrate: 8898 kb/s
  Stream #0:0: Video: h264 (High), yuv420p(tv, bt709, progressive), 2560x1440 [SAR 1:1 DAR 16:9], 10240 kb/s, 60 fps, 59.94 tbr, 1k tbn, 120 tbc
  Stream #0:1: Audio: aac (LC), 48000 Hz, stereo, fltp, 196 kb/s
Stream mapping:
  Stream #0:0 -> #0:0 (h264 (native) -> png (native))
Press [q] to stop, [?] for help
Output #0, image2, to '/storage/32426326/20250702/32426326-20250702-125955-305.all.thumb.png':
  Metadata:
    5.1             : false
    AreaNameChild   : 主机游戏
    fileSize        : 0
    fps             : 60
    4.1             : false
    displayHeight   : 1440
    4.0             : false
    cdn_ip          : 192.168.252.5
    7.1             : false
    2.1             : false
    audiochannels   : 2
    displayWidth    : 2560
    3.1             : false
    Title           : 技术主播没有GG
    Artist          : 蓝音BuBuLine (32426326)
    Comment         : mikufans直播间 32426326 的直播录像
                    : 主播名: 蓝音BuBuLine
                    : 直播标题: 技术主播没有GG
                    : 直播分区: 单机游戏·主机游戏
                    : 录制时间: 2025-07-02T12:59:55.3160027+00:00
                    : 直播服务器:
                    : d1--ov-gotcha07b.bilivideo.com [156.59.188.245]
                    : 
                    : 使用 mikufans录播姬 录制 https://rec.danmuji.org
                    : 录播姬版本: 2.17.0
    RecordedBy      : BililiveRecorder mikufans录播姬
    RecordedFrom    : d1--ov-gotcha07b.bilivideo.com
    StreamServers   : d1--ov-gotcha07b.bilivideo.com [156.59.188.245]
    RecorderVersion : 2.17.0+Branch.tags-v2.17.0.Sha.79d60d3b69038634787f3d53faa1124d513cf64a
    StartTime       : Wed, 02 Jul 2025 12:59:55 +0000
    RoomId          : 32426326
    ShortId         : 0
    Name            : 蓝音BuBuLine
    StreamTitle     : 技术主播没有GG
    AreaNameParent  : 单机游戏
    encoder         : Lavf58.76.100
  Stream #0:0: Video: png, rgb24(pc, gbr/bt709/bt709, progressive), 2560x1440 [SAR 1:1 DAR 16:9], q=2-31, 200 kb/s, 59.94 fps, 59.94 tbn
    Metadata:
      encoder         : Lavc58.134.100 png
frame=    1 fps=0.0 q=0.0 size=N/A time=00:00:00.00 bitrate=N/A dup=1 drop=0 speed=   0x    frame=    1 fps=0.0 q=-0.0 Lsize=N/A time=00:00:00.01 bitrate=N/A dup=1 drop=1 speed=0.0313x    
video:4606kB audio:0kB subtitle:0kB other streams:0kB global headers:0kB muxing overhead: unknown
ffmpeg version 4.4.2-0ubuntu0.22.04.1 Copyright (c) 2000-2021 the FFmpeg developers
  built with gcc 11 (Ubuntu 11.2.0-19ubuntu1)
  configuration: --prefix=/usr --extra-version=0ubuntu0.22.04.1 --toolchain=hardened --libdir=/usr/lib/x86_64-linux-gnu --incdir=/usr/include/x86_64-linux-gnu --arch=amd64 --enable-gpl --disable-stripping --enable-gnutls --enable-ladspa --enable-libaom --enable-libass --enable-libbluray --enable-libbs2b --enable-libcaca --enable-libcdio --enable-libcodec2 --enable-libdav1d --enable-libflite --enable-libfontconfig --enable-libfreetype --enable-libfribidi --enable-libgme --enable-libgsm --enable-libjack --enable-libmp3lame --enable-libmysofa --enable-libopenjpeg --enable-libopenmpt --enable-libopus --enable-libpulse --enable-librabbitmq --enable-librubberband --enable-libshine --enable-libsnappy --enable-libsoxr --enable-libspeex --enable-libsrt --enable-libssh --enable-libtheora --enable-libtwolame --enable-libvidstab --enable-libvorbis --enable-libvpx --enable-libwebp --enable-libx265 --enable-libxml2 --enable-libxvid --enable-libzimg --enable-libzmq --enable-libzvbi --enable-lv2 --enable-omx --enable-openal --enable-opencl --enable-opengl --enable-sdl2 --enable-pocketsphinx --enable-librsvg --enable-libmfx --enable-libdc1394 --enable-libdrm --enable-libiec61883 --enable-chromaprint --enable-frei0r --enable-libx264 --enable-shared
  libavutil      56. 70.100 / 56. 70.100
  libavcodec     58.134.100 / 58.134.100
  libavformat    58. 76.100 / 58. 76.100
  libavdevice    58. 13.100 / 58. 13.100
  libavfilter     7.110.100 /  7.110.100
  libswscale      5.  9.100 /  5.  9.100
  libswresample   3.  9.100 /  3.  9.100
  libpostproc    55.  9.100 / 55.  9.100
[flv @ 0x55d7a83dffc0] Auto-inserting h264_mp4toannexb bitstream filter
Input #0, concat, from '/storage/32426326/20250702/32426326-20250702-125955-305.all.concat.txt':
  Duration: N/A, start: 0.000000, bitrate: 10436 kb/s
  Stream #0:0: Video: h264 (High), yuv420p(tv, bt709, progressive), 2560x1440 [SAR 1:1 DAR 16:9], 10240 kb/s, 60 fps, 59.94 tbr, 1k tbn, 120 tbc
  Stream #0:1: Audio: aac (LC), 48000 Hz, stereo, fltp, 196 kb/s
Output #0, flv, to '/storage/32426326/20250702/32426326-20250702-125955-305.all.flv':
  Metadata:
    encoder         : Lavf58.76.100
  Stream #0:0: Video: h264 (High) ([7][0][0][0] / 0x0007), yuv420p(tv, bt709, progressive), 2560x1440 [SAR 1:1 DAR 16:9], q=2-31, 10240 kb/s, 60 fps, 59.94 tbr, 1k tbn, 1k tbc
  Stream #0:1: Audio: aac (LC) ([10][0][0][0] / 0x000A), 48000 Hz, stereo, fltp, 196 kb/s
Stream mapping:
  Stream #0:0 -> #0:0 (copy)
  Stream #0:1 -> #0:1 (copy)
Press [q] to stop, [?] for help
frame=    1 fps=0.0 q=-1.0 size=       0kB time=00:00:00.00 bitrate=N/A speed=N/A    frame= 3469 fps=0.0 q=-1.0 size=   33280kB time=00:00:57.85 bitrate=4712.2kbits/s speed= 115x    frame= 5350 fps=5338 q=-1.0 size=   69120kB time=00:01:29.22 bitrate=6346.2kbits/s speed=  89x    frame= 7187 fps=4784 q=-1.0 size=  104192kB time=00:01:59.81 bitrate=7123.8kbits/s speed=79.8x    frame= 8959 fps=4473 q=-1.0 size=  141312kB time=00:02:29.30 bitrate=7753.3kbits/s speed=74.6x    frame=11128 fps=4446 q=-1.0 size=  177920kB time=00:03:05.45 bitrate=7859.1kbits/s speed=74.1x    frame=12914 fps=4300 q=-1.0 size=  214784kB time=00:03:35.19 bitrate=8176.4kbits/s speed=71.7x    frame=14728 fps=4204 q=-1.0 size=  252416kB time=00:04:05.40 bitrate=8426.0kbits/s speed=70.1x    frame=16388 fps=4094 q=-1.0 size=  286976kB time=00:04:33.05 bitrate=8609.8kbits/s speed=68.2x    frame=18030 fps=4003 q=-1.0 size=  321024kB time=00:05:00.41 bitrate=8754.0kbits/s speed=66.7x    frame=19725 fps=3942 q=-1.0 size=  356352kB time=00:05:28.67 bitrate=8882.0kbits/s speed=65.7x    frame=21334 fps=3876 q=-1.0 size=  389632kB time=00:05:55.44 bitrate=8979.9kbits/s speed=64.6x    frame=23012 fps=3832 q=-1.0 size=  424960kB time=00:06:23.42 bitrate=9079.3kbits/s speed=63.9x    frame=24659 fps=3791 q=-1.0 size=  458752kB time=00:06:50.86 bitrate=9146.8kbits/s speed=63.2x    frame=26241 fps=3746 q=-1.0 size=  491776kB time=00:07:17.21 bitrate=9214.2kbits/s speed=62.4x    frame=27872 fps=3714 q=-1.0 size=  525568kB time=00:07:44.38 bitrate=9271.4kbits/s speed=61.9x    frame=29445 fps=3677 q=-1.0 size=  558336kB time=00:08:10.59 bitrate=9323.2kbits/s speed=61.3x    frame=31076 fps=3653 q=-1.0 size=  592384kB time=00:08:37.73 bitrate=9373.2kbits/s speed=60.9x    frame=32567 fps=3616 q=-1.0 size=  623360kB time=00:09:02.56 bitrate=9411.9kbits/s speed=60.2x    frame=34326 fps=3610 q=-1.0 size=  659712kB time=00:09:31.86 bitrate=9450.5kbits/s speed=60.1x    frame=36110 fps=3608 q=-1.0 size=  696832kB time=00:10:01.57 bitrate=9489.2kbits/s speed=60.1x    frame=37811 fps=3598 q=-1.0 size=  732160kB time=00:10:29.91 bitrate=9521.6kbits/s speed=59.9x    frame=39919 fps=3626 q=-1.0 size=  770816kB time=00:11:05.04 bitrate=9494.9kbits/s speed=60.4x    frame=41679 fps=3621 q=-1.0 size=  807680kB time=00:11:34.37 bitrate=9528.7kbits/s speed=60.3x    frame=43695 fps=3638 q=-1.0 size=  843008kB time=00:12:07.95 bitrate=9486.7kbits/s speed=60.6x    frame=45522 fps=3639 q=-1.0 size=  881152kB time=00:12:38.38 bitrate=9518.2kbits/s speed=60.6x    frame=47235 fps=3631 q=-1.0 size=  916736kB time=00:13:06.91 bitrate=9543.5kbits/s speed=60.5x    frame=49042 fps=3630 q=-1.0 size=  954368kB time=00:13:37.00 bitrate=9569.3kbits/s speed=60.5x    frame=50991 fps=3639 q=-1.0 size=  994816kB time=00:14:09.48 bitrate=9593.5kbits/s speed=60.6x    frame=52792 fps=3638 q=-1.0 size= 1032192kB time=00:14:39.49 bitrate=9614.3kbits/s speed=60.6x    frame=54774 fps=3649 q=-1.0 size= 1073152kB time=00:15:12.48 bitrate=9634.4kbits/s speed=60.8x    frame=56663 fps=3653 q=-1.0 size= 1112576kB time=00:15:43.94 bitrate=9655.5kbits/s speed=60.8x    frame=58650 fps=3663 q=-1.0 size= 1148672kB time=00:16:17.03 bitrate=9631.1kbits/s speed=  61x    frame=60846 fps=3685 q=-1.0 size= 1188608kB time=00:16:53.63 bitrate=9606.1kbits/s speed=61.4x    frame=62738 fps=3688 q=-1.0 size= 1227520kB time=00:17:25.14 bitrate=9621.4kbits/s speed=61.4x    frame=64502 fps=3683 q=-1.0 size= 1264128kB time=00:17:54.50 bitrate=9637.7kbits/s speed=61.3x    frame=66454 fps=3689 q=-1.0 size= 1304576kB time=00:18:27.02 bitrate=9653.9kbits/s speed=61.5x    frame=68394 fps=3693 q=-1.0 size= 1345024kB time=00:18:59.36 bitrate=9670.7kbits/s speed=61.5x    frame=70330 fps=3698 q=-1.0 size= 1385216kB time=00:19:31.58 bitrate=9685.8kbits/s speed=61.6x    frame=72273 fps=3702 q=-1.0 size= 1425408kB time=00:20:03.94 bitrate=9698.9kbits/s speed=61.7x    frame=74011 fps=3697 q=-1.0 size= 1461760kB time=00:20:32.87 bitrate=9712.9kbits/s speed=61.6x    frame=75949 fps=3701 q=-1.0 size= 1501952kB time=00:21:05.15 bitrate=9725.3kbits/s speed=61.7x    frame=77823 fps=3702 q=-1.0 size= 1541376kB time=00:21:36.36 bitrate=9740.3kbits/s speed=61.7x    frame=79653 fps=3701 q=-1.0 size= 1579264kB time=00:22:06.85 bitrate=9750.4kbits/s speed=61.7x    frame=81592 fps=3705 q=-1.0 size= 1619456kB time=00:22:39.14 bitrate=9761.0kbits/s speed=61.7x    frame=83501 fps=3708 q=-1.0 size= 1658880kB time=00:23:10.93 bitrate=9770.1kbits/s speed=61.8x    frame=85480 fps=3713 q=-1.0 size= 1700096kB time=00:23:43.87 bitrate=9781.2kbits/s speed=61.8x    frame=87380 fps=3715 q=-1.0 size= 1739776kB time=00:24:15.53 bitrate=9791.8kbits/s speed=61.9x    frame=89126 fps=3710 q=-1.0 size= 1775872kB time=00:24:44.61 bitrate=9799.1kbits/s speed=61.8x    frame=91110 fps=3715 q=-1.0 size= 1817088kB time=00:25:17.68 bitrate=9808.1kbits/s speed=61.9x    frame=93121 fps=3721 q=-1.0 size= 1857536kB time=00:25:51.17 bitrate=9809.9kbits/s speed=  62x    frame=95188 fps=3729 q=-1.0 size= 1895936kB time=00:26:25.61 bitrate=9795.2kbits/s speed=62.1x    frame=97219 fps=3736 q=-1.0 size= 1936896kB time=00:26:59.42 bitrate=9798.0kbits/s speed=62.2x    frame=99569 fps=3754 q=-1.0 size= 1976832kB time=00:27:38.60 bitrate=9763.8kbits/s speed=62.5x    frame=101558 fps=3758 q=-1.0 size= 2018304kB time=00:28:11.73 bitrate=9773.3kbits/s speed=62.6x    frame=103460 fps=3759 q=-1.0 size= 2057728kB time=00:28:43.42 bitrate=9781.1kbits/s speed=62.6x    frame=105249 fps=3755 q=-1.0 size= 2094848kB time=00:29:13.24 bitrate=9788.1kbits/s speed=62.6x    frame=107241 fps=3759 q=-1.0 size= 2136320kB time=00:29:46.41 bitrate=9796.5kbits/s speed=62.6x    frame=109527 fps=3773 q=-1.0 size= 2177792kB time=00:30:24.48 bitrate=9778.3kbits/s speed=62.9x    frame=111546 fps=3778 q=-1.0 size= 2213888kB time=00:30:58.11 bitrate=9760.5kbits/s speed=62.9x    frame=113505 fps=3780 q=-1.0 size= 2254592kB time=00:31:30.75 bitrate=9768.4kbits/s speed=  63x    frame=115460 fps=3782 q=-1.0 size= 2295296kB time=00:32:03.28 bitrate=9776.5kbits/s speed=  63x    frame=117233 fps=3778 q=-1.0 size= 2332160kB time=00:32:32.82 bitrate=9783.3kbits/s speed=62.9x    frame=119232 fps=3782 q=-1.0 size= 2373376kB time=00:33:06.12 bitrate=9789.3kbits/s speed=  63x    frame=121111 fps=3781 q=-1.0 size= 2412544kB time=00:33:37.41 bitrate=9796.5kbits/s speed=  63x    frame=122971 fps=3780 q=-1.0 size= 2451200kB time=00:34:08.39 bitrate=9802.9kbits/s speed=  63x    frame=124974 fps=3784 q=-1.0 size= 2492928kB time=00:34:41.75 bitrate=9810.0kbits/s speed=  63x    frame=126810 fps=3782 q=-1.0 size= 2531072kB time=00:35:12.32 bitrate=9816.0kbits/s speed=  63x    frame=128760 fps=3784 q=-1.0 size= 2571776kB time=00:35:44.82 bitrate=9822.7kbits/s speed=  63x    frame=130770 fps=3787 q=-1.0 size= 2613504kB time=00:36:18.26 bitrate=9828.8kbits/s speed=63.1x    frame=132503 fps=3782 q=-1.0 size= 2649344kB time=00:36:47.17 bitrate=9833.1kbits/s speed=  63x    frame=134547 fps=3787 q=-1.0 size= 2691840kB time=00:37:21.19 bitrate=9839.2kbits/s speed=63.1x    frame=136456 fps=3787 q=-1.0 size= 2731520kB time=00:37:52.99 bitrate=9844.6kbits/s speed=63.1x    frame=138410 fps=3789 q=-1.0 size= 2772224kB time=00:38:25.56 bitrate=9850.1kbits/s speed=63.1x    frame=140381 fps=3791 q=-1.0 size= 2812928kB time=00:38:58.38 bitrate=9854.4kbits/s speed=63.1x    frame=142313 fps=3792 q=-1.0 size= 2849280kB time=00:39:30.53 bitrate=9846.4kbits/s speed=63.2x    frame=144296 fps=3794 q=-1.0 size= 2888704kB time=00:40:03.57 bitrate=9845.4kbits/s speed=63.2x    frame=146628 fps=3805 q=-1.0 size= 2930432kB time=00:40:42.43 bitrate=9828.8kbits/s speed=63.4x    frame=148475 fps=3804 q=-1.0 size= 2968576kB time=00:41:13.19 bitrate=9832.9kbits/s speed=63.4x    frame=150400 fps=3804 q=-1.0 size= 3008768kB time=00:41:45.23 bitrate=9838.5kbits/s speed=63.4x    frame=152289 fps=3804 q=-1.0 size= 3047936kB time=00:42:16.69 bitrate=9843.0kbits/s speed=63.4x    frame=154112 fps=3802 q=-1.0 size= 3085312kB time=00:42:47.07 bitrate=9845.8kbits/s speed=63.3x    frame=155779 fps=3796 q=-1.0 size= 3120128kB time=00:43:14.81 bitrate=9850.5kbits/s speed=63.2x    frame=157377 fps=3789 q=-1.0 size= 3153408kB time=00:43:41.45 bitrate=9854.3kbits/s speed=63.1x    frame=159043 fps=3784 q=-1.0 size= 3187712kB time=00:44:09.17 bitrate=9857.3kbits/s speed=  63x    frame=160653 fps=3777 q=-1.0 size= 3221248kB time=00:44:35.99 bitrate=9861.2kbits/s speed=62.9x    frame=162170 fps=3768 q=-1.0 size= 3252736kB time=00:45:01.27 bitrate=9864.4kbits/s speed=62.8x    frame=164032 fps=3768 q=-1.0 size= 3291648kB time=00:45:32.29 bitrate=9869.1kbits/s speed=62.8x    frame=165975 fps=3769 q=-1.0 size= 3332096kB time=00:46:04.64 bitrate=9873.4kbits/s speed=62.8x    frame=167762 fps=3767 q=-1.0 size= 3369216kB time=00:46:34.41 bitrate=9877.1kbits/s speed=62.7x    frame=169742 fps=3769 q=-1.0 size= 3410432kB time=00:47:07.38 bitrate=9881.3kbits/s speed=62.8x    frame=171563 fps=3767 q=-1.0 size= 3448320kB time=00:47:37.74 bitrate=9884.9kbits/s speed=62.8x    frame=173340 fps=3765 q=-1.0 size= 3485440kB time=00:48:07.32 bitrate=9889.0kbits/s speed=62.7x    frame=175131 fps=3763 q=-1.0 size= 3522304kB time=00:48:37.14 bitrate=9891.4kbits/s speed=62.7x    frame=177224 fps=3768 q=-1.0 size= 3559936kB time=00:49:12.00 bitrate=9879.1kbits/s speed=62.8x    frame=179094 fps=3767 q=-1.0 size= 3595776kB time=00:49:43.15 bitrate=9874.3kbits/s speed=62.8x    frame=181307 fps=3774 q=-1.0 size= 3635968kB time=00:50:20.02 bitrate=9862.8kbits/s speed=62.9x    frame=183063 fps=3771 q=-1.0 size= 3672320kB time=00:50:49.30 bitrate=9865.7kbits/s speed=62.8x    frame=184941 fps=3771 q=-1.0 size= 3711744kB time=00:51:20.53 bitrate=9870.6kbits/s speed=62.8x    frame=186915 fps=3773 q=-1.0 size= 3752448kB time=00:51:53.41 bitrate=9873.4kbits/s speed=62.8x    frame=188568 fps=3768 q=-1.0 size= 3786752kB time=00:52:20.99 bitrate=9876.2kbits/s speed=62.8x    frame=190514 fps=3769 q=-1.0 size= 3827456kB time=00:52:53.37 bitrate=9880.5kbits/s speed=62.8x    frame=192466 fps=3771 q=-1.0 size= 3867904kB time=00:53:25.91 bitrate=9883.6kbits/s speed=62.8x    frame=194395 fps=3771 q=-1.0 size= 3907840kB time=00:53:58.03 bitrate=9886.6kbits/s speed=62.8x    frame=196372 fps=3773 q=-1.0 size= 3949056kB time=00:54:30.93 bitrate=9890.3kbits/s speed=62.8x    frame=198253 fps=3773 q=-1.0 size= 3988480kB time=00:55:02.26 bitrate=9894.3kbits/s speed=62.8x    frame=200278 fps=3776 q=-1.0 size= 4030208kB time=00:55:35.99 bitrate=9896.7kbits/s speed=62.9x    frame=202193 fps=3776 q=-1.0 size= 4069888kB time=00:56:07.89 bitrate=9899.5kbits/s speed=62.9x    frame=204090 fps=3776 q=-1.0 size= 4109568kB time=00:56:39.48 bitrate=9903.1kbits/s speed=62.9x    frame=206042 fps=3777 q=-1.0 size= 4150016kB time=00:57:12.00 bitrate=9905.9kbits/s speed=62.9x    frame=207853 fps=3776 q=-1.0 size= 4187648kB time=00:57:42.18 bitrate=9908.5kbits/s speed=62.9x    frame=209678 fps=3775 q=-1.0 size= 4225536kB time=00:58:12.57 bitrate=9911.2kbits/s speed=62.9x    frame=211898 fps=3781 q=-1.0 size= 4265728kB time=00:58:49.56 bitrate=9900.6kbits/s speed=  63x    frame=214043 fps=3785 q=-1.0 size= 4304128kB time=00:59:25.29 bitrate=9889.6kbits/s speed=63.1x    frame=215945 fps=3785 q=-1.0 size= 4343552kB time=00:59:56.97 bitrate=9892.3kbits/s speed=63.1x    frame=217788 fps=3785 q=-1.0 size= 4381952kB time=01:00:27.67 bitrate=9895.3kbits/s speed=  63x    frame=219557 fps=3782 q=-1.0 size= 4418816kB time=01:00:57.15 bitrate=9898.1kbits/s speed=  63x    frame=221475 fps=3783 q=-1.0 size= 4458240kB time=01:01:29.08 bitrate=9900.0kbits/s speed=  63x    frame=223423 fps=3784 q=-1.0 size= 4498688kB time=01:02:01.53 bitrate=9902.7kbits/s speed=  63x    frame=225266 fps=3783 q=-1.0 size= 4536832kB time=01:02:32.24 bitrate=9904.9kbits/s speed=  63x    frame=226989 fps=3780 q=-1.0 size= 4572672kB time=01:03:00.91 bitrate=9907.5kbits/s speed=  63x    frame=228877 fps=3780 q=-1.0 size= 4612096kB time=01:03:32.37 bitrate=9910.4kbits/s speed=  63x    frame=230842 fps=3781 q=-1.0 size= 4652800kB time=01:04:05.11 bitrate=9912.8kbits/s speed=  63x    frame=232703 fps=3781 q=-1.0 size= 4691712kB time=01:04:36.11 bitrate=9915.7kbits/s speed=  63x    frame=234582 fps=3780 q=-1.0 size= 4730880kB time=01:05:07.41 bitrate=9918.4kbits/s speed=  63x    frame=236535 fps=3781 q=-1.0 size= 4771328kB time=01:05:39.92 bitrate=9920.7kbits/s speed=  63x    frame=238496 fps=3782 q=-1.0 size= 4812032kB time=01:06:12.59 bitrate=9923.0kbits/s speed=  63x    frame=240330 fps=3782 q=-1.0 size= 4850176kB time=01:06:43.15 bitrate=9925.3kbits/s speed=  63x    frame=242275 fps=3782 q=-1.0 size= 4890624kB time=01:07:15.52 bitrate=9927.8kbits/s speed=  63x    frame=244122 fps=3782 q=-1.0 size= 4928768kB time=01:07:46.26 bitrate=9929.6kbits/s speed=  63x    frame=246024 fps=3782 q=-1.0 size= 4968448kB time=01:08:17.93 bitrate=9932.2kbits/s speed=  63x    frame=248168 fps=3786 q=-1.0 size= 5007104kB time=01:08:53.65 bitrate=9923.0kbits/s speed=63.1x    frame=250423 fps=3791 q=-1.0 size= 5047040kB time=01:09:31.24 bitrate=9912.0kbits/s speed=63.1x    frame=252250 fps=3790 q=-1.0 size= 5084416kB time=01:10:01.63 bitrate=9913.2kbits/s speed=63.1x    frame=254269 fps=3792 q=-1.0 size= 5126400kB time=01:10:35.29 bitrate=9915.6kbits/s speed=63.2x    frame=256051 fps=3790 q=-1.0 size= 5163264kB time=01:11:04.98 bitrate=9917.4kbits/s speed=63.1x    frame=257818 fps=3788 q=-1.0 size= 5200128kB time=01:11:34.38 bitrate=9919.8kbits/s speed=63.1x    frame=259745 fps=3789 q=-1.0 size= 5240064kB time=01:12:06.47 bitrate=9921.8kbits/s speed=63.1x    frame=261656 fps=3789 q=-1.0 size= 5280000kB time=01:12:38.31 bitrate=9924.4kbits/s speed=63.1x    frame=263398 fps=3787 q=-1.0 size= 5316096kB time=01:13:07.33 bitrate=9926.2kbits/s speed=63.1x    frame=265286 fps=3787 q=-1.0 size= 5355264kB time=01:13:38.79 bitrate=9928.1kbits/s speed=63.1x    frame=267140 fps=3786 q=-1.0 size= 5393920kB time=01:14:09.66 bitrate=9930.4kbits/s speed=63.1x    frame=268922 fps=3785 q=-1.0 size= 5431040kB time=01:14:39.32 bitrate=9932.5kbits/s speed=  63x    frame=270838 fps=3785 q=-1.0 size= 5470720kB time=01:15:11.26 bitrate=9934.3kbits/s speed=  63x    frame=272645 fps=3784 q=-1.0 size= 5508352kB time=01:15:41.36 bitrate=9936.3kbits/s speed=  63x    frame=274438 fps=3782 q=-1.0 size= 5545472kB time=01:16:11.23 bitrate=9937.9kbits/s speed=  63x    frame=276433 fps=3784 q=-1.0 size= 5586944kB time=01:16:44.44 bitrate=9940.0kbits/s speed=  63x    frame=278428 fps=3785 q=-1.0 size= 5623552kB time=01:17:17.66 bitrate=9933.5kbits/s speed=  63x    frame=280362 fps=3786 q=-1.0 size= 5663488kB time=01:17:49.89 bitrate=9935.0kbits/s speed=63.1x    frame=282651 fps=3791 q=-1.0 size= 5701632kB time=01:18:28.01 bitrate=9920.9kbits/s speed=63.1x    frame=284508 fps=3790 q=-1.0 size= 5739776kB time=01:18:58.94 bitrate=9922.1kbits/s speed=63.1x    frame=286388 fps=3790 q=-1.0 size= 5778944kB time=01:19:30.24 bitrate=9924.3kbits/s speed=63.1x    frame=288234 fps=3789 q=-1.0 size= 5817344kB time=01:20:00.97 bitrate=9926.3kbits/s speed=63.1x    frame=290067 fps=3789 q=-1.0 size= 5855488kB time=01:20:31.50 bitrate=9928.2kbits/s speed=63.1x    frame=291780 fps=3786 q=-1.0 size= 5891072kB time=01:21:00.04 bitrate=9929.9kbits/s speed=63.1x    frame=293564 fps=3785 q=-1.0 size= 5928192kB time=01:21:29.77 bitrate=9931.7kbits/s speed=  63x    frame=295438 fps=3785 q=-1.0 size= 5966848kB time=01:22:00.98 bitrate=9933.1kbits/s speed=  63x    frame=297231 fps=3783 q=-1.0 size= 6004224kB time=01:22:30.86 bitrate=9935.0kbits/s speed=  63x    frame=298829 fps=3780 q=-1.0 size= 6037504kB time=01:22:57.45 bitrate=9936.6kbits/s speed=  63x    frame=300636 fps=3779 q=-1.0 size= 6075136kB time=01:23:27.58 bitrate=9938.4kbits/s speed=62.9x    frame=302516 fps=3778 q=-1.0 size= 6114048kB time=01:23:58.88 bitrate=9939.9kbits/s speed=62.9x    frame=304138 fps=3775 q=-1.0 size= 6147840kB time=01:24:25.89 bitrate=9941.6kbits/s speed=62.9x    frame=306007 fps=3775 q=-1.0 size= 6186752kB time=01:24:57.02 bitrate=9943.4kbits/s speed=62.9x    frame=307720 fps=3773 q=-1.0 size= 6222336kB time=01:25:25.53 bitrate=9945.0kbits/s speed=62.8x    frame=309523 fps=3772 q=-1.0 size= 6259712kB time=01:25:55.57 bitrate=9946.4kbits/s speed=62.8x    frame=311386 fps=3771 q=-1.0 size= 6298368kB time=01:26:26.60 bitrate=9948.0kbits/s speed=62.8x    frame=313021 fps=3768 q=-1.0 size= 6332672kB time=01:26:53.85 bitrate=9949.9kbits/s speed=62.8x    frame=314888 fps=3768 q=-1.0 size= 6366464kB time=01:27:24.91 bitrate=9943.7kbits/s speed=62.8x    frame=316846 fps=3769 q=-1.0 size= 6400000kB time=01:27:57.54 bitrate=9934.3kbits/s speed=62.8x    frame=318605 fps=3767 q=-1.0 size= 6436352kB time=01:28:26.83 bitrate=9935.6kbits/s speed=62.8x    frame=320223 fps=3764 q=-1.0 size= 6469888kB time=01:28:53.77 bitrate=9936.9kbits/s speed=62.7x    frame=321978 fps=3763 q=-1.0 size= 6506496kB time=01:29:22.96 bitrate=9938.8kbits/s speed=62.7x    frame=323685 fps=3761 q=-1.0 size= 6542080kB time=01:29:51.40 bitrate=9940.4kbits/s speed=62.6x    frame=325271 fps=3757 q=-1.0 size= 6574848kB time=01:30:17.82 bitrate=9941.5kbits/s speed=62.6x    frame=326999 fps=3756 q=-1.0 size= 6610944kB time=01:30:46.61 bitrate=9943.2kbits/s speed=62.6x    frame=328678 fps=3753 q=-1.0 size= 6645760kB time=01:31:14.58 bitrate=9944.5kbits/s speed=62.5x    frame=330487 fps=3752 q=-1.0 size= 6683392kB time=01:31:44.69 bitrate=9946.1kbits/s speed=62.5x    frame=332211 fps=3751 q=-1.0 size= 6719488kB time=01:32:13.42 bitrate=9947.9kbits/s speed=62.5x    frame=334185 fps=3752 q=-1.0 size= 6760192kB time=01:32:46.30 bitrate=9949.1kbits/s speed=62.5x    frame=336270 fps=3754 q=-1.0 size= 6803712kB time=01:33:21.00 bitrate=9951.1kbits/s speed=62.5x    frame=338382 fps=3757 q=-1.0 size= 6847488kB time=01:33:56.20 bitrate=9952.5kbits/s speed=62.6x    frame=340269 fps=3757 q=-1.0 size= 6886912kB time=01:34:27.65 bitrate=9954.3kbits/s speed=62.6x    frame=342033 fps=3756 q=-1.0 size= 6923264kB time=01:34:57.03 bitrate=9955.2kbits/s speed=62.6x    frame=343886 fps=3755 q=-1.0 size= 6961920kB time=01:35:27.90 bitrate=9956.9kbits/s speed=62.5x    frame=345787 fps=3755 q=-1.0 size= 7001344kB time=01:35:59.55 bitrate=9958.2kbits/s speed=62.6x    frame=347706 fps=3756 q=-1.0 size= 7036928kB time=01:36:31.51 bitrate=9953.6kbits/s speed=62.6x    frame=349571 fps=3756 q=-1.0 size= 7075328kB time=01:37:02.57 bitrate=9954.5kbits/s speed=62.6x    frame=351652 fps=3758 q=-1.0 size= 7112704kB time=01:37:37.25 bitrate=9947.9kbits/s speed=62.6x    frame=353358 fps=3756 q=-1.0 size= 7148288kB time=01:38:05.68 bitrate=9949.4kbits/s speed=62.6x    frame=355213 fps=3756 q=-1.0 size= 7186944kB time=01:38:36.56 bitrate=9950.9kbits/s speed=62.6x    frame=357075 fps=3756 q=-1.0 size= 7225344kB time=01:39:07.61 bitrate=9951.9kbits/s speed=62.6x    frame=358938 fps=3755 q=-1.0 size= 7263744kB time=01:39:38.60 bitrate=9952.9kbits/s speed=62.6x    frame=360831 fps=3756 q=-1.0 size= 7303168kB time=01:40:10.14 bitrate=9954.4kbits/s speed=62.6x    frame=362475 fps=3753 q=-1.0 size= 7337216kB time=01:40:37.56 bitrate=9955.4kbits/s speed=62.5x    frame=364239 fps=3752 q=-1.0 size= 7374080kB time=01:41:06.91 bitrate=9957.0kbits/s speed=62.5x    frame=365640 fps=3747 q=-1.0 size= 7403264kB time=01:41:30.21 bitrate=9958.2kbits/s speed=62.4x    frame=367498 fps=3747 q=-1.0 size= 7441664kB time=01:42:01.16 bitrate=9959.2kbits/s speed=62.4x    frame=369290 fps=3746 q=-1.0 size= 7479040kB time=01:42:31.00 bitrate=9960.7kbits/s speed=62.4x    frame=371156 fps=3746 q=-1.0 size= 7517952kB time=01:43:02.09 bitrate=9962.2kbits/s speed=62.4x    frame=372991 fps=3746 q=-1.0 size= 7555840kB time=01:43:32.64 bitrate=9963.1kbits/s speed=62.4x    frame=374633 fps=3743 q=-1.0 size= 7590144kB time=01:44:00.01 bitrate=9964.5kbits/s speed=62.4x    frame=376499 fps=3743 q=-1.0 size= 7629056kB time=01:44:31.10 bitrate=9965.9kbits/s speed=62.3x    frame=378326 fps=3743 q=-1.0 size= 7666688kB time=01:45:01.49 bitrate=9966.8kbits/s speed=62.3x    frame=380051 fps=3741 q=-1.0 size= 7702784kB time=01:45:30.25 bitrate=9968.2kbits/s speed=62.3x    frame=382153 fps=3744 q=-1.0 size= 7741952kB time=01:46:05.25 bitrate=9963.8kbits/s speed=62.4x    frame=383773 fps=3741 q=-1.0 size= 7774720kB time=01:46:32.26 bitrate=9963.7kbits/s speed=62.3x    frame=385862 fps=3743 q=-1.0 size= 7813120kB time=01:47:07.05 bitrate=9958.7kbits/s speed=62.3x    frame=387508 fps=3741 q=-1.0 size= 7847680kB time=01:47:34.47 bitrate=9960.3kbits/s speed=62.3x    frame=389279 fps=3740 q=-1.0 size= 7884288kB time=01:48:03.94 bitrate=9961.2kbits/s speed=62.3x    frame=391227 fps=3741 q=-1.0 size= 7924480kB time=01:48:36.39 bitrate=9962.2kbits/s speed=62.3x    frame=393229 fps=3742 q=-1.0 size= 7966208kB time=01:49:09.75 bitrate=9963.6kbits/s speed=62.3x    frame=395136 fps=3742 q=-1.0 size= 8005888kB time=01:49:41.54 bitrate=9964.9kbits/s speed=62.3x    frame=396991 fps=3742 q=-1.0 size= 8044288kB time=01:50:12.44 bitrate=9965.9kbits/s speed=62.3x    frame=398811 fps=3742 q=-1.0 size= 8082432kB time=01:50:42.73 bitrate=9967.5kbits/s speed=62.3x    frame=400713 fps=3742 q=-1.0 size= 8121856kB time=01:51:14.44 bitrate=9968.5kbits/s speed=62.3x    frame=402423 fps=3740 q=-1.0 size= 8157440kB time=01:51:42.93 bitrate=9969.6kbits/s speed=62.3x    frame=404267 fps=3740 q=-1.0 size= 8195840kB time=01:52:13.66 bitrate=9970.8kbits/s speed=62.3x    frame=406182 fps=3741 q=-1.0 size= 8235520kB time=01:52:45.55 bitrate=9971.9kbits/s speed=62.3x    frame=407871 fps=3739 q=-1.0 size= 8270592kB time=01:53:13.67 bitrate=9972.9kbits/s speed=62.3x    frame=409746 fps=3739 q=-1.0 size= 8309248kB time=01:53:44.90 bitrate=9973.7kbits/s speed=62.3x    frame=411930 fps=3742 q=-1.0 size= 8349696kB time=01:54:21.26 bitrate=9969.1kbits/s speed=62.3x    frame=414159 fps=3745 q=-1.0 size= 8388352kB time=01:54:58.42 bitrate=9961.3kbits/s speed=62.4x    frame=416164 fps=3746 q=-1.0 size= 8429568kB time=01:55:31.81 bitrate=9962.0kbits/s speed=62.4x    frame=417899 fps=3745 q=-1.0 size= 8465920kB time=01:56:00.71 bitrate=9963.5kbits/s speed=62.4x    frame=419758 fps=3745 q=-1.0 size= 8504576kB time=01:56:31.67 bitrate=9964.6kbits/s speed=62.4x    frame=421661 fps=3745 q=-1.0 size= 8543744kB time=01:57:03.37 bitrate=9965.3kbits/s speed=62.4x    frame=423459 fps=3744 q=-1.0 size= 8581376kB time=01:57:33.28 bitrate=9966.8kbits/s speed=62.4x    frame=425362 fps=3745 q=-1.0 size= 8621056kB time=01:58:05.01 bitrate=9968.0kbits/s speed=62.4x    frame=427179 fps=3744 q=-1.0 size= 8658688kB time=01:58:35.27 bitrate=9969.0kbits/s speed=62.4x    frame=429020 fps=3744 q=-1.0 size= 8696832kB time=01:59:05.94 bitrate=9969.9kbits/s speed=62.4x    frame=430831 fps=3743 q=-1.0 size= 8734720kB time=01:59:36.10 bitrate=9971.3kbits/s speed=62.3x    frame=432590 fps=3742 q=-1.0 size= 8771072kB time=02:00:05.39 bitrate=9972.1kbits/s speed=62.3x    frame=434477 fps=3742 q=-1.0 size= 8810496kB time=02:00:36.79 bitrate=9973.4kbits/s speed=62.3x    frame=436366 fps=3743 q=-1.0 size= 8849664kB time=02:01:08.23 bitrate=9974.4kbits/s speed=62.3x    frame=438075 fps=3741 q=-1.0 size= 8885248kB time=02:01:36.69 bitrate=9975.5kbits/s speed=62.3x    frame=439780 fps=3740 q=-1.0 size= 8920576kB time=02:02:05.11 bitrate=9976.3kbits/s speed=62.3x    frame=441794 fps=3741 q=-1.0 size= 8961024kB time=02:02:38.64 bitrate=9975.8kbits/s speed=62.3x    frame=443743 fps=3742 q=-1.0 size= 8997376kB time=02:03:11.10 bitrate=9972.3kbits/s speed=62.3x    frame=446015 fps=3745 q=-1.0 size= 9036544kB time=02:03:48.95 bitrate=9964.7kbits/s speed=62.4x    frame=447770 fps=3744 q=-1.0 size= 9073152kB time=02:04:18.15 bitrate=9965.9kbits/s speed=62.4x    frame=449652 fps=3744 q=-1.0 size= 9112064kB time=02:04:49.54 bitrate=9966.7kbits/s speed=62.4x    frame=451430 fps=3743 q=-1.0 size= 9149184kB time=02:05:19.15 bitrate=9967.9kbits/s speed=62.3x    frame=453169 fps=3742 q=-1.0 size= 9185536kB time=02:05:48.08 bitrate=9969.1kbits/s speed=62.3x    frame=455036 fps=3742 q=-1.0 size= 9224448kB time=02:06:19.22 bitrate=9970.2kbits/s speed=62.3x    frame=456938 fps=3742 q=-1.0 size= 9263616kB time=02:06:50.88 bitrate=9970.9kbits/s speed=62.3x    frame=458627 fps=3741 q=-1.0 size= 9298944kB time=02:07:18.98 bitrate=9972.1kbits/s speed=62.3x    frame=460648 fps=3742 q=-1.0 size= 9340672kB time=02:07:52.65 bitrate=9972.9kbits/s speed=62.3x    frame=462493 fps=3742 q=-1.0 size= 9379072kB time=02:08:23.39 bitrate=9974.0kbits/s speed=62.3x    frame=464490 fps=3743 q=-1.0 size= 9420800kB time=02:08:56.65 bitrate=9975.3kbits/s speed=62.3x    frame=466358 fps=3743 q=-1.0 size= 9459456kB time=02:09:27.77 bitrate=9976.1kbits/s speed=62.3x    frame=468164 fps=3742 q=-1.0 size= 9497088kB time=02:09:57.83 bitrate=9977.1kbits/s speed=62.3x    frame=469975 fps=3742 q=-1.0 size= 9534720kB time=02:10:28.02 bitrate=9978.0kbits/s speed=62.3x    frame=471940 fps=3743 q=-1.0 size= 9575424kB time=02:11:00.75 bitrate=9978.9kbits/s speed=62.3x    frame=473702 fps=3742 q=-1.0 size= 9612032kB time=02:11:30.08 bitrate=9979.8kbits/s speed=62.3x    frame=475636 fps=3742 q=-1.0 size= 9652224kB time=02:12:02.30 bitrate=9980.8kbits/s speed=62.3x    frame=477446 fps=3742 q=-1.0 size= 9689856kB time=02:12:32.45 bitrate=9981.7kbits/s speed=62.3x    frame=479211 fps=3741 q=-1.0 size= 9725184kB time=02:13:01.86 bitrate=9981.2kbits/s speed=62.3x    frame=481381 fps=3743 q=-1.0 size= 9765632kB time=02:13:37.99 bitrate=9977.6kbits/s speed=62.3x    frame=483552 fps=3746 q=-1.0 size= 9804800kB time=02:14:14.15 bitrate=9972.6kbits/s speed=62.4x    frame=485500 fps=3746 q=-1.0 size= 9844992kB time=02:14:46.61 bitrate=9973.3kbits/s speed=62.4x    frame=487424 fps=3746 q=-1.0 size= 9884928kB time=02:15:18.63 bitrate=9974.3kbits/s speed=62.4x    frame=488991 fps=3744 q=-1.0 size= 9917440kB time=02:15:44.74 bitrate=9975.0kbits/s speed=62.4x    frame=490765 fps=3743 q=-1.0 size= 9954304kB time=02:16:14.28 bitrate=9975.9kbits/s speed=62.4x    frame=492504 fps=3742 q=-1.0 size= 9990656kB time=02:16:43.28 bitrate=9976.9kbits/s speed=62.3x    frame=494070 fps=3740 q=-1.0 size=10023168kB time=02:17:09.36 bitrate=9977.7kbits/s speed=62.3x    frame=495859 fps=3739 q=-1.0 size=10060288kB time=02:17:39.16 bitrate=9978.5kbits/s speed=62.3x    frame=497743 fps=3739 q=-1.0 size=10099456kB time=02:18:10.54 bitrate=9979.4kbits/s speed=62.3x    frame=499373 fps=3738 q=-1.0 size=10133504kB time=02:18:37.67 bitrate=9980.4kbits/s speed=62.3x    frame=501019 fps=3736 q=-1.0 size=10167552kB time=02:19:05.08 bitrate=9981.0kbits/s speed=62.2x    frame=502696 fps=3735 q=-1.0 size=10202368kB time=02:19:33.00 bitrate=9981.8kbits/s speed=62.2x    frame=504513 fps=3734 q=-1.0 size=10240000kB time=02:20:03.30 bitrate=9982.5kbits/s speed=62.2x    frame=506410 fps=3734 q=-1.0 size=10279424kB time=02:20:34.90 bitrate=9983.4kbits/s speed=62.2x    frame=508150 fps=3733 q=-1.0 size=10315520kB time=02:21:03.86 bitrate=9984.2kbits/s speed=62.2x    frame=510048 fps=3734 q=-1.0 size=10354944kB time=02:21:35.49 bitrate=9985.0kbits/s speed=62.2x    frame=512006 fps=3734 q=-1.0 size=10395392kB time=02:22:08.12 bitrate=9985.7kbits/s speed=62.2x    frame=513632 fps=3733 q=-1.0 size=10429440kB time=02:22:35.19 bitrate=9986.7kbits/s speed=62.2x    frame=515382 fps=3732 q=-1.0 size=10465536kB time=02:23:04.35 bitrate=9987.2kbits/s speed=62.2x    frame=517263 fps=3732 q=-1.0 size=10503680kB time=02:23:35.69 bitrate=9987.1kbits/s speed=62.2x    frame=519448 fps=3734 q=-1.0 size=10544640kB time=02:24:12.10 bitrate=9983.9kbits/s speed=62.2x    frame=521156 fps=3733 q=-1.0 size=10579968kB time=02:24:40.53 bitrate=9984.5kbits/s speed=62.2x    frame=523409 fps=3736 q=-1.0 size=10619904kB time=02:25:18.04 bitrate=9979.1kbits/s speed=62.2x    frame=525243 fps=3735 q=-1.0 size=10657792kB time=02:25:48.59 bitrate=9979.7kbits/s speed=62.2x    frame=526985 fps=3735 q=-1.0 size=10694144kB time=02:26:17.59 bitrate=9980.7kbits/s speed=62.2x    frame=528934 fps=3735 q=-1.0 size=10734592kB time=02:26:50.05 bitrate=9981.5kbits/s speed=62.2x    frame=530822 fps=3735 q=-1.0 size=10773760kB time=02:27:21.51 bitrate=9982.3kbits/s speed=62.2x    frame=532746 fps=3736 q=-1.0 size=10813952kB time=02:27:53.53 bitrate=9983.4kbits/s speed=62.2x    frame=534664 fps=3736 q=-1.0 size=10853888kB time=02:28:25.43 bitrate=9984.4kbits/s speed=62.2x    frame=536453 fps=3735 q=-1.0 size=10890752kB time=02:28:55.26 bitrate=9984.8kbits/s speed=62.2x    frame=538385 fps=3736 q=-1.0 size=10930944kB time=02:29:27.41 bitrate=9985.7kbits/s speed=62.2x    frame=540191 fps=3735 q=-1.0 size=10968576kB time=02:29:57.50 bitrate=9986.6kbits/s speed=62.2x    frame=541995 fps=3735 q=-1.0 size=11006208kB time=02:30:27.55 bitrate=9987.5kbits/s speed=62.2x    frame=543944 fps=3736 q=-1.0 size=11046400kB time=02:31:00.00 bitrate=9988.1kbits/s speed=62.2x    frame=545727 fps=3735 q=-1.0 size=11084032kB time=02:31:29.70 bitrate=9989.4kbits/s speed=62.2x    frame=547570 fps=3735 q=-1.0 size=11121664kB time=02:32:00.42 bitrate=9989.5kbits/s speed=62.2x    frame=549485 fps=3735 q=-1.0 size=11161600kB time=02:32:32.29 bitrate=9990.5kbits/s speed=62.2x    frame=551183 fps=3734 q=-1.0 size=11196928kB time=02:33:00.59 bitrate=9991.2kbits/s speed=62.2x    frame=553038 fps=3734 q=-1.0 size=11235584kB time=02:33:31.47 bitrate=9992.1kbits/s speed=62.2x    frame=554851 fps=3733 q=-1.0 size=11272704kB time=02:34:01.67 bitrate=9992.3kbits/s speed=62.2x    frame=556832 fps=3734 q=-1.0 size=11312640kB time=02:34:34.64 bitrate=9992.1kbits/s speed=62.2x    frame=559206 fps=3738 q=-1.0 size=11352320kB time=02:35:14.21 bitrate=9984.5kbits/s speed=62.3x    frame=563080 fps=3751 q=-1.0 size=11391488kB time=02:36:18.73 bitrate=9950.1kbits/s speed=62.5x    frame=566138 fps=3759 q=-1.0 size=11431168kB time=02:37:09.66 bitrate=9930.8kbits/s speed=62.6x    frame=569464 fps=3768 q=-1.0 size=11465472kB time=02:38:05.10 bitrate=9902.4kbits/s speed=62.8x    frame=572139 fps=3774 q=-1.0 size=11506432kB time=02:38:49.65 bitrate=9891.3kbits/s speed=62.9x    frame=574509 fps=3777 q=-1.0 size=11547392kB time=02:39:29.08 bitrate=9885.6kbits/s speed=62.9x    frame=577174 fps=3782 q=-1.0 size=11582976kB time=02:40:13.50 bitrate=9870.3kbits/s speed=  63x    frame=579327 fps=3783 q=-1.0 size=11622656kB time=02:40:49.36 bitrate=9867.3kbits/s speed=  63x    frame=582107 fps=3789 q=-1.0 size=11662080kB time=02:41:35.68 bitrate=9853.4kbits/s speed=63.1x    frame=584393 fps=3792 q=-1.0 size=11700992kB time=02:42:13.79 bitrate=9847.6kbits/s speed=63.2x    frame=588997 fps=3809 q=-1.0 size=11739136kB time=02:43:30.49 bitrate=9802.5kbits/s speed=63.4x    frame=591049 fps=3810 q=-1.0 size=11777024kB time=02:44:04.66 bitrate=9800.0kbits/s speed=63.5x    frame=593080 fps=3811 q=-1.0 size=11813120kB time=02:44:38.51 bitrate=9796.3kbits/s speed=63.5x    frame=595521 fps=3814 q=-1.0 size=11854592kB time=02:45:19.18 bitrate=9790.4kbits/s speed=63.5x    frame=598386 fps=3820 q=-1.0 size=11890944kB time=02:46:06.89 bitrate=9773.4kbits/s speed=63.6x    frame=600429 fps=3821 q=-1.0 size=11932160kB time=02:46:40.93 bitrate=9773.9kbits/s speed=63.6x    frame=602432 fps=3822 q=-1.0 size=11969024kB time=02:47:14.31 bitrate=9771.5kbits/s speed=63.7x    frame=604379 fps=3822 q=-1.0 size=12004608kB time=02:47:46.72 bitrate=9769.0kbits/s speed=63.7x    frame=607032 fps=3827 q=-1.0 size=12044544kB time=02:48:30.95 bitrate=9758.6kbits/s speed=63.7x    frame=609047 fps=3827 q=-1.0 size=12083200kB time=02:49:04.52 bitrate=9757.5kbits/s speed=63.8x    frame=611058 fps=3828 q=-1.0 size=12123392kB time=02:49:38.02 bitrate=9757.8kbits/s speed=63.8x    frame=613059 fps=3829 q=-1.0 size=12162816kB time=02:50:11.36 bitrate=9757.5kbits/s speed=63.8x    frame=615825 fps=3834 q=-1.0 size=12199680kB time=02:50:57.44 bitrate=9743.1kbits/s speed=63.9x    frame=617978 fps=3835 q=-1.0 size=12238336kB time=02:51:33.29 bitrate=9740.0kbits/s speed=63.9x    frame=620120 fps=3837 q=-1.0 size=12279296kB time=02:52:09.01 bitrate=9738.8kbits/s speed=63.9x    frame=622075 fps=3837 q=-1.0 size=12316672kB time=02:52:41.58 bitrate=9737.7kbits/s speed=63.9x    frame=624979 fps=3843 q=-1.0 size=12351744kB time=02:53:29.96 bitrate=9720.1kbits/s speed=  64x    frame=627671 fps=3848 q=-1.0 size=12386048kB time=02:54:14.78 bitrate=9705.3kbits/s speed=64.1x    frame=630143 fps=3851 q=-1.0 size=12420608kB time=02:54:55.96 bitrate=9694.2kbits/s speed=64.1x    frame=632809 fps=3855 q=-1.0 size=12459008kB time=02:55:40.37 bitrate=9683.2kbits/s speed=64.2x    frame=634835 fps=3856 q=-1.0 size=12497408kB time=02:56:14.16 bitrate=9682.0kbits/s speed=64.2x    frame=637463 fps=3860 q=-1.0 size=12533248kB time=02:56:57.91 bitrate=9669.7kbits/s speed=64.3x    frame=639637 fps=3862 q=-1.0 size=12573696kB time=02:57:34.14 bitrate=9667.9kbits/s speed=64.3x    frame=641482 fps=3861 q=-1.0 size=12609792kB time=02:58:04.89 bitrate=9667.8kbits/s speed=64.3x    frame=644127 fps=3865 q=-1.0 size=12647424kB time=02:58:48.93 bitrate=9656.9kbits/s speed=64.4x    frame=646089 fps=3866 q=-1.0 size=12686080kB time=02:59:21.63 bitrate=9656.9kbits/s speed=64.4x    frame=647784 fps=3864 q=-1.0 size=12719616kB time=02:59:49.85 bitrate=9657.1kbits/s speed=64.4x    frame=649684 fps=3864 q=-1.0 size=12756736kB time=03:00:21.53 bitrate=9657.0kbits/s speed=64.4x    frame=655323 fps=3886 q=-1.0 size=12791552kB time=03:01:55.46 bitrate=9600.0kbits/s speed=64.7x    frame=657167 fps=3885 q=-1.0 size=12825600kB time=03:02:26.19 bitrate=9598.5kbits/s speed=64.7x    frame=660017 fps=3891 q=-1.0 size=12859904kB time=03:03:13.66 bitrate=9582.6kbits/s speed=64.8x    frame=662283 fps=3893 q=-1.0 size=12896768kB time=03:03:51.41 bitrate=9577.2kbits/s speed=64.8x    frame=664351 fps=3893 q=-1.0 size=12933120kB time=03:04:25.82 bitrate=9574.4kbits/s speed=64.8x    frame=666940 fps=3897 q=-1.0 size=12972032kB time=03:05:08.98 bitrate=9565.8kbits/s speed=64.9x    frame=669007 fps=3898 q=-1.0 size=13009152kB time=03:05:43.42 bitrate=9563.6kbits/s speed=64.9x    frame=671599 fps=3901 q=-1.0 size=13047040kB time=03:06:26.60 bitrate=9554.4kbits/s speed=  65x    frame=674852 fps=3909 q=-1.0 size=13084416kB time=03:07:20.77 bitrate=9535.6kbits/s speed=65.1x    frame=677704 fps=3914 q=-1.0 size=13117440kB time=03:08:08.27 bitrate=9519.4kbits/s speed=65.2x    frame=680658 fps=3920 q=-1.0 size=13155584kB time=03:08:57.49 bitrate=9505.7kbits/s speed=65.3x    frame=683915 fps=3927 q=-1.0 size=13191424kB time=03:09:51.76 bitrate=9486.2kbits/s speed=65.4x    frame=686511 fps=3931 q=-1.0 size=13226496kB time=03:10:35.01 bitrate=9475.4kbits/s speed=65.5x    frame=689559 fps=3937 q=-1.0 size=13266432kB time=03:11:25.74 bitrate=9462.0kbits/s speed=65.6x    frame=692223 fps=3941 q=-1.0 size=13302272kB time=03:12:10.12 bitrate=9451.1kbits/s speed=65.6x    frame=694108 fps=3941 q=-1.0 size=13339136kB time=03:12:41.56 bitrate=9451.5kbits/s speed=65.6x    frame=696024 fps=3940 q=-1.0 size=13378816kB time=03:13:13.48 bitrate=9453.5kbits/s speed=65.6x    frame=697792 fps=3939 q=-1.0 size=13415424kB time=03:13:42.91 bitrate=9455.4kbits/s speed=65.6x    frame=699708 fps=3939 q=-1.0 size=13452800kB time=03:14:14.83 bitrate=9455.8kbits/s speed=65.6x    frame=701710 fps=3939 q=-1.0 size=13492224kB time=03:14:48.16 bitrate=9456.4kbits/s speed=65.6x    frame=703470 fps=3938 q=-1.0 size=13527808kB time=03:15:17.50 bitrate=9457.6kbits/s speed=65.6x    frame=705471 fps=3938 q=-1.0 size=13566720kB time=03:15:50.79 bitrate=9458.0kbits/s speed=65.6x    frame=708275 fps=3943 q=-1.0 size=13604096kB time=03:16:37.56 bitrate=9446.4kbits/s speed=65.7x    frame=710038 fps=3941 q=-1.0 size=13640960kB time=03:17:06.90 bitrate=9448.5kbits/s speed=65.7x    frame=712645 fps=3945 q=-1.0 size=13679616kB time=03:17:50.36 bitrate=9440.6kbits/s speed=65.7x    frame=714408 fps=3944 q=-1.0 size=13715200kB time=03:18:19.73 bitrate=9441.8kbits/s speed=65.7x    frame=716352 fps=3944 q=-1.0 size=13752576kB time=03:18:52.13 bitrate=9441.8kbits/s speed=65.7x    frame=719035 fps=3948 q=-1.0 size=13791744kB time=03:19:36.84 bitrate=9433.4kbits/s speed=65.8x    frame=720928 fps=3947 q=-1.0 size=13825280kB time=03:20:08.38 bitrate=9431.5kbits/s speed=65.7x    frame=723649 fps=3951 q=-1.0 size=13864192kB time=03:20:53.71 bitrate=9422.4kbits/s speed=65.8x    frame=725633 fps=3951 q=-1.0 size=13899008kB time=03:21:26.75 bitrate=9420.3kbits/s speed=65.8x    frame=728196 fps=3954 q=-1.0 size=13932288kB time=03:22:09.44 bitrate=9409.6kbits/s speed=65.9x    frame=729842 fps=3953 q=-1.0 size=13966592kB time=03:22:36.86 bitrate=9411.5kbits/s speed=65.8x    frame=731612 fps=3951 q=-1.0 size=14003456kB time=03:23:06.35 bitrate=9413.5kbits/s speed=65.8x    frame=733435 fps=3951 q=-1.0 size=14041344kB time=03:23:36.70 bitrate=9415.5kbits/s speed=65.8x    frame=735342 fps=3950 q=-1.0 size=14081024kB time=03:24:08.47 bitrate=9417.6kbits/s speed=65.8x    frame=737050 fps=3949 q=-1.0 size=14116608kB time=03:24:36.91 bitrate=9419.6kbits/s speed=65.8x    frame=739814 fps=3953 q=-1.0 size=14155008kB time=03:25:23.00 bitrate=9409.9kbits/s speed=65.8x    frame=741823 fps=3953 q=-1.0 size=14192384kB time=03:25:56.46 bitrate=9409.2kbits/s speed=65.8x    frame=743949 fps=3954 q=-1.0 size=14232064kB time=03:26:31.87 bitrate=9408.5kbits/s speed=65.9x    frame=747027 fps=3960 q=-1.0 size=14270208kB time=03:27:23.18 bitrate=9394.8kbits/s speed=  66x    frame=749334 fps=3962 q=-1.0 size=14306048kB time=03:28:01.60 bitrate=9389.4kbits/s speed=  66x    frame=752407 fps=3967 q=-1.0 size=14341376kB time=03:28:52.80 bitrate=9374.2kbits/s speed=66.1x    frame=754305 fps=3967 q=-1.0 size=14379776kB time=03:29:24.42 bitrate=9375.6kbits/s speed=66.1x    frame=756449 fps=3968 q=-1.0 size=14413568kB time=03:30:00.13 bitrate=9371.0kbits/s speed=66.1x    frame=758460 fps=3968 q=-1.0 size=14454272kB time=03:30:33.63 bitrate=9372.5kbits/s speed=66.1x    frame=760467 fps=3968 q=-1.0 size=14493952kB time=03:31:07.07 bitrate=9373.5kbits/s speed=66.1x    frame=762207 fps=3967 q=-1.0 size=14529024kB time=03:31:36.06 bitrate=9374.7kbits/s speed=66.1x    frame=764259 fps=3967 q=-1.0 size=14568448kB time=03:32:10.22 bitrate=9374.9kbits/s speed=66.1x    frame=766139 fps=3966 q=-1.0 size=14606336kB time=03:32:41.54 bitrate=9376.2kbits/s speed=66.1x    frame=768835 fps=3970 q=-1.0 size=14647040kB time=03:33:26.45 bitrate=9369.4kbits/s speed=66.1x    frame=771291 fps=3973 q=-1.0 size=14688256kB time=03:34:07.36 bitrate=9365.8kbits/s speed=66.2x    frame=773042 fps=3971 q=-1.0 size=14724608kB time=03:34:36.52 bitrate=9367.7kbits/s speed=66.2x    frame=775389 fps=3973 q=-1.0 size=14765824kB time=03:35:15.66 bitrate=9365.5kbits/s speed=66.2x    frame=777315 fps=3973 q=-1.0 size=14806016kB time=03:35:47.72 bitrate=9367.7kbits/s speed=66.2x    frame=779110 fps=3972 q=-1.0 size=14843392kB time=03:36:17.65 bitrate=9369.7kbits/s speed=66.2x    frame=781044 fps=3972 q=-1.0 size=14882816kB time=03:36:49.86 bitrate=9371.4kbits/s speed=66.2x    frame=784091 fps=3977 q=-1.0 size=14922496kB time=03:37:40.62 bitrate=9359.8kbits/s speed=66.2x    frame=787028 fps=3982 q=-1.0 size=14957824kB time=03:38:29.56 bitrate=9347.0kbits/s speed=66.3x    frame=788966 fps=3982 q=-1.0 size=14998272kB time=03:39:01.83 bitrate=9349.2kbits/s speed=66.3x    frame=790898 fps=3981 q=-1.0 size=15035136kB time=03:39:33.98 bitrate=9349.3kbits/s speed=66.3x    frame=793347 fps=3984 q=-1.0 size=15072512kB time=03:40:14.76 bitrate=9343.6kbits/s speed=66.4x    frame=795318 fps=3983 q=-1.0 size=15110144kB time=03:40:47.58 bitrate=9343.8kbits/s speed=66.4x    frame=797313 fps=3983 q=-1.0 size=15150080kB time=03:41:20.83 bitrate=9345.0kbits/s speed=66.4x    frame=799191 fps=3983 q=-1.0 size=15188224kB time=03:41:52.13 bitrate=9346.5kbits/s speed=66.3x    frame=801746 fps=3986 q=-1.0 size=15226112kB time=03:42:34.69 bitrate=9340.0kbits/s speed=66.4x    frame=804383 fps=3989 q=-1.0 size=15261952kB time=03:43:18.59 bitrate=9331.3kbits/s speed=66.4x    frame=806280 fps=3988 q=-1.0 size=15298560kB time=03:43:50.18 bitrate=9331.6kbits/s speed=66.4x    frame=808422 fps=3989 q=-1.0 size=15338496kB time=03:44:25.90 bitrate=9331.2kbits/s speed=66.4x    frame=811233 fps=3993 q=-1.0 size=15377920kB time=03:45:12.71 bitrate=9322.8kbits/s speed=66.5x    frame=812924 fps=3992 q=-1.0 size=15412480kB time=03:45:40.89 bitrate=9324.3kbits/s speed=66.5x    frame=814953 fps=3992 q=-1.0 size=15454464kB time=03:46:14.69 bitrate=9326.4kbits/s speed=66.5x    frame=817907 fps=3996 q=-1.0 size=15491328kB time=03:47:03.91 bitrate=9314.9kbits/s speed=66.6x    frame=819785 fps=3996 q=-1.0 size=15528192kB time=03:47:35.18 bitrate=9315.7kbits/s speed=66.6x    frame=821686 fps=3995 q=-1.0 size=15567616kB time=03:48:06.85 bitrate=9317.7kbits/s speed=66.6x    frame=823771 fps=3996 q=-1.0 size=15605760kB time=03:48:41.61 bitrate=9316.9kbits/s speed=66.6x    frame=825696 fps=3995 q=-1.0 size=15645696kB time=03:49:13.67 bitrate=9318.9kbits/s speed=66.6x    frame=828746 fps=4000 q=-1.0 size=15685376kB time=03:50:04.51 bitrate=9308.2kbits/s speed=66.6x    frame=831192 fps=4003 q=-1.0 size=15721216kB time=03:50:45.25 bitrate=9302.0kbits/s speed=66.7x    frame=834740 fps=4010 q=-1.0 size=15762176kB time=03:51:44.36 bitrate=9286.6kbits/s speed=66.8x    frame=837615 fps=4014 q=-1.0 size=15800576kB time=03:52:32.24 bitrate=9277.2kbits/s speed=66.9x    frame=839441 fps=4013 q=-1.0 size=15837440kB time=03:53:02.63 bitrate=9278.7kbits/s speed=66.8x    frame=841505 fps=4014 q=-1.0 size=15877888kB time=03:53:37.02 bitrate=9279.5kbits/s speed=66.9x    frame=844169 fps=4017 q=-1.0 size=15917824kB time=03:54:21.41 bitrate=9273.5kbits/s speed=66.9x    frame=846409 fps=4018 q=-1.0 size=15958784kB time=03:54:58.72 bitrate=9272.8kbits/s speed=66.9x    frame=848177 fps=4017 q=-1.0 size=15993088kB time=03:55:28.17 bitrate=9273.3kbits/s speed=66.9x    frame=850208 fps=4017 q=-1.0 size=16033792kB time=03:56:02.04 bitrate=9274.7kbits/s speed=66.9x    frame=852573 fps=4018 q=-1.0 size=16075264kB time=03:56:41.45 bitrate=9272.9kbits/s speed=66.9x    frame=854692 fps=4019 q=-1.0 size=16111872kB time=03:57:16.72 bitrate=9271.0kbits/s speed=66.9x    frame=857357 fps=4022 q=-1.0 size=16154368kB time=03:58:01.12 bitrate=9266.5kbits/s speed=  67x    frame=859814 fps=4024 q=-1.0 size=16192512kB time=03:58:42.07 bitrate=9261.9kbits/s speed=  67x    frame=861967 fps=4025 q=-1.0 size=16231936kB time=03:59:17.93 bitrate=9261.2kbits/s speed=  67x    frame=864211 fps=4026 q=-1.0 size=16273152kB time=03:59:55.30 bitrate=9260.6kbits/s speed=67.1x    frame=866806 fps=4029 q=-1.0 size=16314624kB time=04:00:38.51 bitrate=9256.5kbits/s speed=67.1x    frame=869033 fps=4029 q=-1.0 size=16354560kB time=04:01:15.64 bitrate=9255.3kbits/s speed=67.1x    frame=871514 fps=4032 q=-1.0 size=16396800kB time=04:01:56.93 bitrate=9252.8kbits/s speed=67.2x    frame=873949 fps=4034 q=-1.0 size=16432128kB time=04:02:37.53 bitrate=9246.9kbits/s speed=67.2x    frame=877230 fps=4039 q=-1.0 size=16474112kB time=04:03:32.16 bitrate=9235.9kbits/s speed=67.3x    frame=879453 fps=4040 q=-1.0 size=16512512kB time=04:04:09.21 bitrate=9234.0kbits/s speed=67.3x    frame=881903 fps=4042 q=-1.0 size=16550144kB time=04:04:50.03 bitrate=9229.3kbits/s speed=67.3x    frame=884950 fps=4047 q=-1.0 size=16588544kB time=04:05:40.76 bitrate=9218.9kbits/s speed=67.4x    frame=886788 fps=4046 q=-1.0 size=16626944kB time=04:06:11.40 bitrate=9221.1kbits/s speed=67.4x    frame=888586 fps=4045 q=-1.0 size=16663296kB time=04:06:41.36 bitrate=9222.5kbits/s speed=67.4x    frame=891008 fps=4047 q=-1.0 size=16705792kB time=04:07:21.71 bitrate=9220.9kbits/s speed=67.4x    frame=893533 fps=4049 q=-1.0 size=16743424kB time=04:08:03.79 bitrate=9215.5kbits/s speed=67.4x    frame=896911 fps=4055 q=-1.0 size=16786944kB time=04:09:00.08 bitrate=9204.7kbits/s speed=67.5x    frame=899071 fps=4056 q=-1.0 size=16826368kB time=04:09:36.04 bitrate=9204.1kbits/s speed=67.6x    frame=901261 fps=4057 q=-1.0 size=16868864kB time=04:10:12.54 bitrate=9205.0kbits/s speed=67.6x    frame=907123 fps=4074 q=-1.0 size=16908800kB time=04:11:50.17 bitrate=9167.1kbits/s speed=67.9x    frame=912252 fps=4088 q=-1.0 size=16950272kB time=04:13:15.58 bitrate=9138.0kbits/s speed=68.1x    frame=914460 fps=4088 q=-1.0 size=16990208kB time=04:13:52.36 bitrate=9137.4kbits/s speed=68.1x    frame=916579 fps=4089 q=-1.0 size=17031680kB time=04:14:27.64 bitrate=9138.5kbits/s speed=68.1x    frame=918735 fps=4089 q=-1.0 size=17070336kB time=04:15:03.57 bitrate=9137.7kbits/s speed=68.1x    frame=920640 fps=4089 q=-1.0 size=17108736kB time=04:15:35.30 bitrate=9139.4kbits/s speed=68.1x    frame=922904 fps=4089 q=-1.0 size=17150464kB time=04:16:13.03 bitrate=9139.2kbits/s speed=68.1x    frame=924820 fps=4089 q=-1.0 size=17188096kB time=04:16:44.94 bitrate=9140.2kbits/s speed=68.1x    frame=926868 fps=4089 q=-1.0 size=17229312kB time=04:17:19.05 bitrate=9141.9kbits/s speed=68.1x    frame=930004 fps=4094 q=-1.0 size=17269248kB time=04:18:11.32 bitrate=9132.2kbits/s speed=68.2x    frame=932058 fps=4094 q=-1.0 size=17307392kB time=04:18:45.52 bitrate=9132.2kbits/s speed=68.2x    frame=934154 fps=4094 q=-1.0 size=17349632kB time=04:19:20.44 bitrate=9133.9kbits/s speed=68.2x    frame=936055 fps=4093 q=-1.0 size=17387008kB time=04:19:52.09 bitrate=9135.0kbits/s speed=68.2x    frame=939159 fps=4098 q=-1.0 size=17424128kB time=04:20:43.81 bitrate=9124.3kbits/s speed=68.3x    frame=941526 fps=4099 q=-1.0 size=17462528kB time=04:21:23.22 bitrate=9121.4kbits/s speed=68.3x    frame=944015 fps=4101 q=-1.0 size=17503488kB time=04:22:04.70 bitrate=9118.7kbits/s speed=68.3x    frame=947034 fps=4105 q=-1.0 size=17543936kB time=04:22:54.97 bitrate=9110.6kbits/s speed=68.4x    frame=949891 fps=4109 q=-1.0 size=17585152kB time=04:23:42.56 bitrate=9104.6kbits/s speed=68.4x    frame=952148 fps=4110 q=-1.0 size=17626112kB time=04:24:20.20 bitrate=9104.1kbits/s speed=68.5x    frame=954989 fps=4113 q=-1.0 size=17666816kB time=04:25:07.48 bitrate=9098.0kbits/s speed=68.5x    frame=957000 fps=4113 q=-1.0 size=17705984kB time=04:25:40.99 bitrate=9099.0kbits/s speed=68.5x    frame=959142 fps=4113 q=-1.0 size=17744384kB time=04:26:16.69 bitrate=9098.4kbits/s speed=68.5x    frame=961035 fps=4112 q=-1.0 size=17783808kB time=04:26:48.24 bitrate=9100.6kbits/s speed=68.5x    frame=963992 fps=4116 q=-1.0 size=17822976kB time=04:27:37.47 bitrate=9092.7kbits/s speed=68.6x    frame=966263 fps=4117 q=-1.0 size=17860352kB time=04:28:15.28 bitrate=9090.4kbits/s speed=68.6x    frame=967936 fps=4116 q=-1.0 size=17895168kB time=04:28:43.17 bitrate=9092.3kbits/s speed=68.6x    frame=970595 fps=4118 q=-1.0 size=17934080kB time=04:29:27.44 bitrate=9087.1kbits/s speed=68.6x    frame=972538 fps=4118 q=-1.0 size=17974528kB time=04:29:59.83 bitrate=9089.4kbits/s speed=68.6x    frame=974601 fps=4118 q=-1.0 size=18013696kB time=04:30:34.20 bitrate=9090.0kbits/s speed=68.6x    frame=976767 fps=4118 q=-1.0 size=18056448kB time=04:31:10.25 bitrate=9091.3kbits/s speed=68.6x    frame=978874 fps=4118 q=-1.0 size=18094592kB time=04:31:45.38 bitrate=9090.9kbits/s speed=68.6x    frame=980754 fps=4117 q=-1.0 size=18133760kB time=04:32:16.71 bitrate=9093.1kbits/s speed=68.6x    frame=982833 fps=4118 q=-1.0 size=18174720kB time=04:32:51.33 bitrate=9094.4kbits/s speed=68.6x    frame=984600 fps=4116 q=-1.0 size=18211328kB time=04:33:20.78 bitrate=9096.3kbits/s speed=68.6x    frame=986639 fps=4116 q=-1.0 size=18251520kB time=04:33:54.75 bitrate=9097.6kbits/s speed=68.6x    frame=988526 fps=4115 q=-1.0 size=18290432kB time=04:34:26.18 bitrate=9099.6kbits/s speed=68.6x    frame=991355 fps=4119 q=-1.0 size=18329600kB time=04:35:13.30 bitrate=9093.0kbits/s speed=68.6x    frame=994161 fps=4122 q=-1.0 size=18370560kB time=04:36:00.02 bitrate=9087.6kbits/s speed=68.7x    frame=996306 fps=4122 q=-1.0 size=18408192kB time=04:36:35.75 bitrate=9086.7kbits/s speed=68.7x    frame=999194 fps=4126 q=-1.0 size=18448384kB time=04:37:23.87 bitrate=9080.2kbits/s speed=68.7x    frame=1002067 fps=4129 q=-1.0 size=18488064kB time=04:38:11.76 bitrate=9073.6kbits/s speed=68.8x    frame=1004672 fps=4131 q=-1.0 size=18526208kB time=04:38:55.13 bitrate=9068.7kbits/s speed=68.8x    frame=1007130 fps=4133 q=-1.0 size=18565376kB time=04:39:36.08 bitrate=9065.7kbits/s speed=68.8x    frame=1010408 fps=4138 q=-1.0 size=18606848kB time=04:40:30.68 bitrate=9056.5kbits/s speed=68.9x    frame=1014139 fps=4144 q=-1.0 size=18646016kB time=04:41:32.85 bitrate=9042.2kbits/s speed=  69x    frame=1016201 fps=4144 q=-1.0 size=18687488kB time=04:42:07.19 bitrate=9043.9kbits/s speed=  69x    frame=1018368 fps=4145 q=-1.0 size=18727424kB time=04:42:43.31 bitrate=9043.9kbits/s speed=  69x    frame=1020483 fps=4145 q=-1.0 size=18764032kB time=04:43:18.51 bitrate=9042.8kbits/s speed=  69x    frame=1024278 fps=4152 q=-1.0 size=18804480kB time=04:44:21.73 bitrate=9028.8kbits/s speed=69.2x    frame=1026628 fps=4153 q=-1.0 size=18844928kB time=04:45:00.85 bitrate=9027.5kbits/s speed=69.2x    frame=1028941 fps=4154 q=-1.0 size=18884352kB time=04:45:39.37 bitrate=9026.0kbits/s speed=69.2x    frame=1031160 fps=4154 q=-1.0 size=18925824kB time=04:46:16.37 bitrate=9026.4kbits/s speed=69.2x    frame=1033355 fps=4155 q=-1.0 size=18964992kB time=04:46:52.95 bitrate=9025.8kbits/s speed=69.2x    frame=1035732 fps=4156 q=-1.0 size=19007744kB time=04:47:32.55 bitrate=9025.4kbits/s speed=69.2x    frame=1037958 fps=4157 q=-1.0 size=19048192kB time=04:48:09.63 bitrate=9025.2kbits/s speed=69.2x    frame=1040013 fps=4157 q=-1.0 size=19086336kB time=04:48:43.85 bitrate=9025.4kbits/s speed=69.2x    frame=1042209 fps=4157 q=-1.0 size=19127296kB time=04:49:20.45 bitrate=9025.7kbits/s speed=69.2x    frame=1044914 fps=4160 q=-1.0 size=19165952kB time=04:50:05.46 bitrate=9020.6kbits/s speed=69.3x    frame=1046979 fps=4160 q=-1.0 size=19205120kB time=04:50:39.88 bitrate=9021.2kbits/s speed=69.3x    frame=1049222 fps=4160 q=-1.0 size=19245056kB time=04:51:17.26 bitrate=9020.6kbits/s speed=69.3x    frame=1051115 fps=4159 q=-1.0 size=19280896kB time=04:51:48.79 bitrate=9021.1kbits/s speed=69.3x    frame=1053135 fps=4159 q=-1.0 size=19314688kB time=04:52:22.44 bitrate=9019.6kbits/s speed=69.3x    frame=1055196 fps=4159 q=-1.0 size=19353344kB time=04:52:56.78 bitrate=9020.0kbits/s speed=69.3x    frame=1057224 fps=4159 q=-1.0 size=19389952kB time=04:53:30.55 bitrate=9019.7kbits/s speed=69.3x    frame=1059355 fps=4159 q=-1.0 size=19428864kB time=04:54:06.01 bitrate=9019.7kbits/s speed=69.3x    frame=1061385 fps=4159 q=-1.0 size=19466496kB time=04:54:39.86 bitrate=9019.8kbits/s speed=69.3x    frame=1063503 fps=4159 q=-1.0 size=19505408kB time=04:55:15.15 bitrate=9019.9kbits/s speed=69.3x    frame=1065678 fps=4159 q=-1.0 size=19546368kB time=04:55:51.37 bitrate=9020.4kbits/s speed=69.3x    frame=1067707 fps=4159 q=-1.0 size=19584000kB time=04:56:25.18 bitrate=9020.5kbits/s speed=69.3x    frame=1069883 fps=4160 q=-1.0 size=19624448kB time=04:57:01.42 bitrate=9020.8kbits/s speed=69.3x    frame=1071924 fps=4159 q=-1.0 size=19662592kB time=04:57:35.42 bitrate=9021.1kbits/s speed=69.3x    frame=1074290 fps=4160 q=-1.0 size=19699200kB time=04:58:14.81 bitrate=9018.0kbits/s speed=69.3x    frame=1076893 fps=4162 q=-1.0 size=19737856kB time=04:58:58.16 bitrate=9013.9kbits/s speed=69.3x    frame=1079034 fps=4163 q=-1.0 size=19777536kB time=04:59:33.81 bitrate=9014.1kbits/s speed=69.3x    frame=1080954 fps=4162 q=-1.0 size=19811072kB time=05:00:05.82 bitrate=9013.3kbits/s speed=69.3x    frame=1083066 fps=4162 q=-1.0 size=19850496kB time=05:00:41.01 bitrate=9013.6kbits/s speed=69.3x    frame=1085134 fps=4162 q=-1.0 size=19888128kB time=05:01:15.45 bitrate=9013.5kbits/s speed=69.3x    frame=1087309 fps=4163 q=-1.0 size=19928576kB time=05:01:51.67 bitrate=9013.8kbits/s speed=69.3x    frame=1089546 fps=4163 q=-1.0 size=19967744kB time=05:02:28.96 bitrate=9013.0kbits/s speed=69.3x    frame=1091708 fps=4163 q=-1.0 size=20007168kB time=05:03:04.98 bitrate=9012.9kbits/s speed=69.4x    frame=1093869 fps=4164 q=-1.0 size=20046848kB time=05:03:40.98 bitrate=9012.9kbits/s speed=69.4x    frame=1096036 fps=4164 q=-1.0 size=20087040kB time=05:04:17.08 bitrate=9013.1kbits/s speed=69.4x    frame=1097940 fps=4163 q=-1.0 size=20122368kB time=05:04:48.81 bitrate=9013.3kbits/s speed=69.4x    frame=1100059 fps=4163 q=-1.0 size=20162304kB time=05:05:24.09 bitrate=9013.8kbits/s speed=69.4x    frame=1103717 fps=4169 q=-1.0 size=20200192kB time=05:06:25.03 bitrate=9000.8kbits/s speed=69.5x    frame=1106532 fps=4172 q=-1.0 size=20235264kB time=05:07:11.93 bitrate=8993.5kbits/s speed=69.5x    frame=1108874 fps=4173 q=-1.0 size=20273408kB time=05:07:50.95 bitrate=8991.4kbits/s speed=69.5x    frame=1110737 fps=4172 q=-1.0 size=20312064kB time=05:08:21.96 bitrate=8993.4kbits/s speed=69.5x    frame=1112631 fps=4172 q=-1.0 size=20351488kB time=05:08:53.52 bitrate=8995.6kbits/s speed=69.5x    frame=1114454 fps=4171 q=-1.0 size=20387328kB time=05:09:23.89 bitrate=8996.7kbits/s speed=69.5x    frame=1117117 fps=4173 q=-1.0 size=20425472kB time=05:10:08.29 bitrate=8992.0kbits/s speed=69.5x    frame=1120447 fps=4177 q=-1.0 size=20461824kB time=05:11:03.73 bitrate=8981.2kbits/s speed=69.6x    frame=1123036 fps=4179 q=-1.0 size=20500736kB time=05:11:46.89 bitrate=8977.5kbits/s speed=69.6x    frame=1126684 fps=4185 q=-1.0 size=20539136kB time=05:12:47.67 bitrate=8965.2kbits/s speed=69.7x    frame=1128558 fps=4184 q=-1.0 size=20576000kB time=05:13:18.89 bitrate=8966.4kbits/s speed=69.7x    frame=1130497 fps=4184 q=-1.0 size=20613888kB time=05:13:51.18 bitrate=8967.5kbits/s speed=69.7x    frame=1132457 fps=4183 q=-1.0 size=20652800kB time=05:14:23.81 bitrate=8968.9kbits/s speed=69.7x    frame=1134280 fps=4182 q=-1.0 size=20688384kB time=05:14:54.19 bitrate=8969.9kbits/s speed=69.7x    frame=1136206 fps=4181 q=-1.0 size=20726272kB time=05:15:26.27 bitrate=8971.1kbits/s speed=69.7x    frame=1138812 fps=4183 q=-1.0 size=20765696kB time=05:16:09.71 bitrate=8967.6kbits/s speed=69.7x    frame=1140527 fps=4182 q=-1.0 size=20801280kB time=05:16:38.26 bitrate=8969.5kbits/s speed=69.7x    frame=1142897 fps=4183 q=-1.0 size=20841216kB time=05:17:17.72 bitrate=8968.0kbits/s speed=69.7x    frame=1145313 fps=4184 q=-1.0 size=20877568kB time=05:17:57.97 bitrate=8964.7kbits/s speed=69.7x    frame=1147828 fps=4186 q=-1.0 size=20915968kB time=05:18:39.88 bitrate=8961.5kbits/s speed=69.7x    frame=1150678 fps=4188 q=-1.0 size=20954880kB time=05:19:27.36 bitrate=8956.0kbits/s speed=69.8x    frame=1153055 fps=4189 q=-1.0 size=20993280kB time=05:20:06.95 bitrate=8953.9kbits/s speed=69.8x    frame=1154943 fps=4189 q=-1.0 size=21032704kB time=05:20:38.38 bitrate=8956.0kbits/s speed=69.8x    frame=1157279 fps=4190 q=-1.0 size=21072384kB time=05:21:17.30 bitrate=8954.8kbits/s speed=69.8x    frame=1159378 fps=4190 q=-1.0 size=21109248kB time=05:21:52.30 bitrate=8954.2kbits/s speed=69.8x    frame=1162428 fps=4193 q=-1.0 size=21149184kB time=05:22:43.12 bitrate=8947.6kbits/s speed=69.8x    frame=1165468 fps=4196 q=-1.0 size=21185536kB time=05:23:33.77 bitrate=8939.6kbits/s speed=69.9x    frame=1168091 fps=4198 q=-1.0 size=21222656kB time=05:24:17.46 bitrate=8935.2kbits/s speed=69.9x    frame=1171301 fps=4202 q=-1.0 size=21261312kB time=05:25:10.96 bitrate=8926.9kbits/s speed=  70x    frame=1173827 fps=4204 q=-1.0 size=21299200kB time=05:25:53.02 bitrate=8923.6kbits/s speed=  70x    frame=1176598 fps=4206 q=-1.0 size=21339392kB time=05:26:39.16 bitrate=8919.4kbits/s speed=70.1x    frame=1179341 fps=4208 q=-1.0 size=21379584kB time=05:27:24.88 bitrate=8915.4kbits/s speed=70.1x    frame=1181339 fps=4208 q=-1.0 size=21416960kB time=05:27:58.15 bitrate=8915.9kbits/s speed=70.1x    frame=1183521 fps=4208 q=-1.0 size=21458432kB time=05:28:34.52 bitrate=8916.6kbits/s speed=70.1x    frame=1186262 fps=4211 q=-1.0 size=21498624kB time=05:29:20.17 bitrate=8912.7kbits/s speed=70.1x    frame=1188715 fps=4212 q=-1.0 size=21535744kB time=05:30:01.05 bitrate=8909.7kbits/s speed=70.2x    frame=1190703 fps=4217 q=-1.0 Lsize=21545574kB time=05:30:34.15 bitrate=8898.9kbits/s speed=70.2x    
video:21030782kB audio:474925kB subtitle:0kB other streams:0kB global headers:0kB muxing overhead: 0.185380%
